<svg width="375" height="429" viewBox="0 0 375 429" fill="none" xmlns="http://www.w3.org/2000/svg">
<path d="M40.0357 98.9991C40.1184 98.7531 40.333 98.5748 40.5899 98.5399L56.4001 96.3587V94.5971L43.5159 96.4763C43.2487 96.5124 42.9754 96.3888 42.8326 96.1537C42.6905 95.9187 42.7028 95.6214 42.8633 95.3993L44.0605 93.749C49.7506 85.9099 52.6199 81.9561 56.4001 73.1098V70.6669L50.384 71.8702C50.0758 71.9317 49.7642 71.7745 49.6303 71.4889C49.4971 71.2032 49.5763 70.8636 49.823 70.6668L56.6563 65.2002C56.8613 65.0355 57.1435 65.0041 57.3793 65.1175C57.6164 65.2309 57.7667 65.4708 57.7667 65.7332V68.0278C64.1613 71.0105 72.5116 77.3676 76.8665 90.8059C76.9287 90.9972 76.9034 91.2064 76.7968 91.3772C76.6909 91.548 76.5139 91.6636 76.315 91.6929L57.7667 94.3975V96.17L80.2231 93.0725C80.4213 93.0452 80.6167 93.1047 80.7656 93.2345C80.9146 93.3643 81 93.5523 81 93.7498C81 98.2714 77.3216 101.95 72.8 101.95H42.7335C42.5524 101.95 42.3782 101.878 42.2503 101.75L40.2004 99.6995C40.0166 99.5157 39.953 99.2444 40.0357 98.9991ZM57.7668 91.4257C60.0477 86.5898 58.9107 78.7739 57.7668 73.6803V91.4257Z" fill="#103F57"/>
<path d="M0 99.444C49.1544 105.62 94.6855 94.1396 131.5 99.444C244.665 115.749 305.038 139.838 375 99.444V496H0V99.444Z" fill="#103F57"/>
<path d="M375 99.2009C325.846 104.337 280.314 94.7895 243.5 99.2009C130.335 112.761 69.9617 132.795 0 99.2009V429H375V99.2009Z" fill="#05293C"/>
<path d="M305.906 94.827C305.688 94.179 305.123 93.7092 304.446 93.6175L262.8 87.8718V83.2314L296.739 88.1814C297.443 88.2768 298.162 87.9511 298.539 87.3318C298.913 86.7127 298.88 85.9297 298.458 85.3445L295.304 80.9976C280.316 60.3481 272.757 49.9333 262.8 26.6308V20.1957L278.647 23.3655C279.459 23.5275 280.28 23.1134 280.632 22.361C280.983 21.6086 280.775 20.714 280.125 20.1955L262.125 5.79569C261.585 5.3618 260.841 5.27911 260.22 5.5778C259.596 5.87669 259.2 6.50845 259.2 7.19969V13.2441C242.356 21.101 220.36 37.8465 208.888 73.245C208.724 73.7489 208.791 74.2999 209.072 74.7498C209.351 75.1998 209.817 75.5041 210.341 75.5813L259.2 82.7057V87.3748L200.047 79.2156C199.524 79.1436 199.01 79.3002 198.617 79.6421C198.225 79.9842 198 80.4793 198 80.9995C198 92.91 207.689 102.599 219.6 102.599H298.8C299.277 102.599 299.736 102.41 300.072 102.072L305.472 96.6721C305.956 96.1877 306.124 95.4731 305.906 94.827ZM259.2 74.8777C253.191 62.1392 256.186 41.5507 259.2 28.1337V74.8777Z" fill="#05293C"/>
</svg>
