<svg width="375" height="507" viewBox="0 0 375 507" fill="none" xmlns="http://www.w3.org/2000/svg">
<path d="M-22.5719 86.8695C63.9511 72.1754 85.7921 46.8088 116.318 52.7998C175.792 59.0803 129.473 167.928 135 187.883C144.742 224.165 183.025 118.458 166.635 40.4351C196.894 44.3517 237.774 42.2657 252.687 72.8235C277.023 124.101 220.376 179.029 244.254 246.391C250.571 234.826 280.042 98.41 279.367 91.5383C394.989 83.2291 340.901 334.773 346.364 337.867C372.917 322.86 396.759 208.254 380.139 172.643C480.62 141.818 551.349 379.444 375.858 448.789C399.404 565.956 132.563 643.656 74.7466 525.828C91.608 522.398 176.819 504.076 179.456 480.332C180.589 471.12 156.797 467.404 131.699 483.091C69.5972 521.904 -28.0512 458.478 -47.5224 354.915C-30.7757 355.506 53.2129 357.163 61.1726 333.789C68.6228 313.012 -55.8766 342.492 -63.0334 303.348C-66.2171 285.201 -58.2574 261.827 -60.002 246.659C-40.6699 244.387 -1.64952 265.524 24.7507 244.422C19.7205 218.499 -44.949 245.569 -57.7731 218.117C-59.7343 214.362 -52.003 95.92 -22.5719 86.8695Z" fill="#05293C"/>
</svg>
